<svg width="103" height="20" viewBox="0 0 103 20" fill="none" xmlns="http://www.w3.org/2000/svg">
<path d="M59.5795 0.304688C59.4989 0.304688 59.4183 0.385327 59.3376 0.425643C57.8459 1.71576 56.5155 3.16714 55.3463 4.77978C53.774 6.95686 52.4436 9.25487 51.5163 11.7948C51.355 12.198 51.2341 12.6011 51.1132 13.0043H51.0728C50.9922 12.7221 50.9116 12.4802 50.8309 12.198C50.2262 10.4644 49.4602 8.8114 48.5329 7.23907C47.0412 4.69915 45.3076 2.40114 43.0902 0.425643C43.0096 0.345011 42.8483 0.304688 42.7274 0.304688C41.7598 0.304688 40.8325 0.304688 39.8649 0.304688C39.7843 0.304688 39.7037 0.304688 39.623 0.304688C39.623 6.55369 39.623 12.8027 39.623 19.0517C40.9535 19.0517 42.2436 19.0517 43.574 19.0517C43.574 14.8991 43.574 10.7466 43.574 6.63433C43.6143 6.63433 43.6143 6.63433 43.6547 6.63433C46.4365 10.3434 48.1298 14.5766 49.0973 19.092C50.3875 19.092 51.6776 19.092 52.9677 19.092C53.9756 14.496 55.6689 10.2628 58.6523 6.59401C58.6926 6.59401 58.7329 6.63433 58.7329 6.63433C58.7329 10.7869 58.7329 14.9395 58.7329 19.092C60.1037 19.092 61.4341 19.092 62.7645 19.092C62.7645 12.843 62.7645 6.59401 62.7645 0.345006C61.7163 0.30469 60.6278 0.304688 59.5795 0.304688Z" fill="#022342"/>
<path d="M12.7321 7.96502C12.5305 7.80376 12.2886 7.68281 12.0871 7.56186C12.4096 7.1587 12.7321 6.75555 12.974 6.31207C13.4578 5.46543 13.6594 4.53815 13.4981 3.57057C13.2965 2.19982 12.4499 1.3935 11.2001 0.869391C9.99062 0.385597 8.74082 0.264648 7.4507 0.264648C5.23331 0.264648 3.05624 0.264648 0.838854 0.264648C0.758221 0.264648 0.677589 0.264648 0.556641 0.264648C0.556641 0.385597 0.556641 0.50654 0.556641 0.587173C0.556641 2.6433 0.556641 4.69942 0.556641 6.79586C0.556641 6.83617 0.556641 6.83618 0.556641 6.8765V10.4646V12.682C0.556641 14.8188 0.556641 16.9152 0.556641 19.0117C0.677589 19.0117 0.758221 19.0117 0.798538 19.0117C3.29814 19.0117 5.79774 19.0117 8.29734 19.0117C9.22461 19.0117 10.1519 18.8907 11.0388 18.5682C13.9416 17.6006 15.6752 15.101 15.1108 11.916C14.8689 10.3437 14.1432 8.97293 12.7321 7.96502ZM4.78984 3.53025C5.03173 3.53025 5.23331 3.53025 5.47521 3.53025C6.12027 3.53025 6.72501 3.48993 7.37007 3.53025C7.85386 3.57056 8.37797 3.6512 8.86177 3.81247C9.54714 4.05436 9.78904 4.57847 9.54714 5.26385C9.4262 5.58638 9.26493 5.82828 9.10367 6.11049C9.06335 6.19112 8.9424 6.23143 8.90209 6.23143C7.57165 6.07017 6.2009 5.98954 4.83015 6.19112C4.78984 5.30416 4.78984 4.4172 4.78984 3.53025ZM11.0792 13.0449C10.9582 14.2543 10.2728 15.101 9.1843 15.5445C8.78114 15.7057 8.29734 15.7864 7.85387 15.8267C6.88628 15.867 5.91869 15.8267 4.9511 15.8267C4.91079 15.8267 4.83015 15.8267 4.78984 15.7864C4.78984 13.6899 4.78984 11.5935 4.78984 9.49705C5.83806 9.33578 6.84596 9.25514 7.89418 9.37609C8.57956 9.45672 9.26493 9.65831 9.82936 10.0615C10.8373 10.7872 11.2001 11.7951 11.0792 13.0449Z" fill="#022342"/>
<path d="M79.5764 7.96503C79.3748 7.80376 79.1329 7.68281 78.9313 7.56186C79.2538 7.1587 79.5764 6.75555 79.8183 6.31207C80.3021 5.46543 80.5036 4.53815 80.3424 3.57057C80.1408 2.19982 79.2942 1.3935 78.0443 0.869391C76.8349 0.385597 75.5851 0.264648 74.2949 0.264648C72.0776 0.264648 69.9005 0.264648 67.6831 0.264648C67.6025 0.264648 67.5218 0.264648 67.4009 0.264648C67.4009 0.385597 67.4009 0.506541 67.4009 0.587173C67.4009 2.6433 67.4009 4.69942 67.4009 6.79586C67.4009 6.83618 67.4009 6.83618 67.4009 6.8765V10.4646V12.682C67.4009 14.8188 67.4009 16.9152 67.4009 19.0117C67.5218 19.0117 67.6025 19.0117 67.6428 19.0117C70.1424 19.0117 72.642 19.0117 75.1416 19.0117C76.0689 19.0117 76.9961 18.8907 77.8831 18.5682C80.7858 17.6006 82.5194 15.101 81.955 11.916C81.7131 10.3437 80.9471 8.97293 79.5764 7.96503ZM71.6341 3.53025C71.876 3.53025 72.0776 3.53025 72.3194 3.53025C72.9645 3.53025 73.5693 3.48993 74.2143 3.53025C74.6981 3.57056 75.2222 3.6512 75.706 3.81247C76.3914 4.05436 76.6333 4.57848 76.3914 5.26385C76.2704 5.58638 76.1092 5.82828 75.9479 6.11049C75.9076 6.19112 75.7866 6.23144 75.7463 6.23144C74.4159 6.07017 73.0451 5.98954 71.6744 6.19112C71.6341 5.30416 71.6341 4.4172 71.6341 3.53025ZM77.9234 13.0449C77.8025 14.2543 77.1171 15.101 76.0285 15.5445C75.6254 15.7057 75.1416 15.7864 74.6981 15.8267C73.7305 15.867 72.7629 15.8267 71.7953 15.8267C71.755 15.8267 71.6744 15.8267 71.6341 15.7864C71.6341 13.6899 71.6341 11.5935 71.6341 9.49705C72.6823 9.33578 73.6902 9.25514 74.7384 9.37609C75.4238 9.45672 76.1092 9.65831 76.6736 10.0615C77.6412 10.7872 78.0443 11.7951 77.9234 13.0449Z" fill="#022342"/>
<path d="M30.8743 0.304955C30.8743 0.425903 30.8743 0.546862 30.8743 0.66781C30.8743 4.98164 30.8743 9.33578 30.8743 13.6496C30.8743 13.8915 30.7937 14.0528 30.5921 14.214C29.9067 14.6978 29.1407 15.0204 28.3344 15.2219C27.2459 15.5041 26.1573 15.6654 25.0285 15.3026C23.819 14.9397 22.9723 14.214 22.4886 13.0449C22.166 12.1982 22.1257 11.3113 22.1257 10.384C22.1257 7.11839 22.1257 3.85278 22.1257 0.587173C22.1257 0.466224 22.1257 0.385597 22.1257 0.264648C20.7146 0.264648 19.3842 0.264648 17.9731 0.264648C17.9731 0.385597 17.9731 0.466222 17.9731 0.546854C17.9731 4.09468 17.9731 7.6425 17.9731 11.1903C17.9731 11.916 18.0538 12.6014 18.1747 13.3271C18.4569 14.8188 19.102 16.1492 20.2309 17.1974C21.4403 18.3263 22.932 18.931 24.5447 19.1729C26.5202 19.4551 28.3747 19.1729 30.1486 18.286C30.5115 18.0844 30.834 17.8828 31.1968 17.6812C31.1968 18.165 31.1968 18.6085 31.1968 19.052C32.487 19.052 33.7771 19.052 35.0672 19.052C35.0672 18.931 35.0672 11.5532 35.0672 11.5532C35.0672 11.5532 35.0672 4.09468 35.0672 0.345273C33.6561 0.304957 32.2854 0.304955 30.8743 0.304955Z" fill="#022342"/>
<path d="M101.468 15.1814L99.7345 10.8272C99.0491 9.21456 98.4041 7.60191 97.7187 5.98927C96.9527 4.17504 96.227 2.36082 95.461 0.586906C95.3804 0.385325 95.2997 0.304688 95.0578 0.304688C93.6871 0.304688 92.3163 0.304688 90.9859 0.304688C90.7843 0.304688 90.7037 0.345006 90.6231 0.546587C90.5021 0.949749 90.3409 1.31259 90.1796 1.71575C89.2523 4.25567 88.2847 6.7956 87.3575 9.33552C86.3899 11.8754 85.4626 14.4557 84.495 16.9956C84.2531 17.681 83.9709 18.3663 83.729 19.0517C83.7693 19.0517 83.7693 19.092 83.8096 19.092C85.1804 19.092 86.5511 19.092 87.8816 19.092C87.9622 19.092 88.0428 19.0114 88.0832 18.9308C88.2041 18.6485 88.325 18.326 88.4057 18.0035C88.5669 17.5197 88.7282 17.0762 88.9298 16.5924C91.8729 17.56 94.7756 17.56 97.7187 16.673C97.759 16.794 97.7993 16.8746 97.8397 16.9956C98.0816 17.6406 98.2831 18.2454 98.525 18.8904C98.5654 19.0517 98.646 19.092 98.8073 19.092C99.8152 19.092 100.823 19.092 101.831 19.092C102.194 19.092 102.557 19.092 103 19.092C102.516 17.7213 101.992 16.4312 101.468 15.1814ZM90.1393 13.2462C91.1472 10.4644 92.1148 7.68255 93.1227 4.86042C94.2515 7.72287 95.3804 10.545 96.5495 13.4478C94.3725 14.0122 92.276 14.0122 90.1393 13.2462Z" fill="#022342"/>
</svg>
