<svg width="32" height="40" viewBox="0 0 32 40" fill="none" xmlns="http://www.w3.org/2000/svg">
<path d="M30.5971 27.7838L28.8866 26.0713C30.677 23.7027 31.6841 20.7738 31.6841 17.653C31.6841 13.5558 29.8777 9.71473 26.8724 7.106C28.439 6.62586 29.574 5.24948 29.574 3.64903C29.574 1.63246 27.7996 0 25.6415 0H21.3732L23.883 2.51271H25.6415C26.4088 2.51271 27.0642 3.02485 27.0642 3.64903C27.0642 4.2732 26.4088 4.78535 25.6415 4.78535H15.5064C14.739 4.78535 14.0836 4.2732 14.0836 3.64903C14.0836 3.04086 14.739 2.51271 15.5064 2.51271H17.2648L19.7746 0H15.5064C13.3323 0 11.5738 1.63246 11.5738 3.64903C11.5738 5.66559 13.3483 7.29805 15.5064 7.29805H15.938L12.4051 13.3958L16.0819 15.6364L16.6574 15.3643C16.9931 15.2043 17.3607 15.1083 17.7444 15.1083C19.1032 15.1083 20.2062 16.2126 20.2062 17.5729C20.2062 18.1331 20.0144 18.6452 19.7107 19.0614L21.3892 20.7418C22.1245 19.8936 22.5722 18.7893 22.5722 17.5729C22.5722 14.9002 20.3981 12.7396 17.7444 12.7396C17.2329 12.7396 16.7213 12.8196 16.2417 12.9797L15.6023 12.5955L18.6556 7.29805H22.9558C26.8244 9.26661 29.3022 13.2837 29.3022 17.653C29.3022 22.0382 26.9043 25.9753 23.0198 27.9759H16.5774C13.5401 27.9759 10.6626 29.1602 8.52051 31.3208L6.58621 33.2574V28.6961C6.58621 27.1436 7.19368 25.6872 8.28072 24.5989L8.95213 23.9267H13.0925L16.9931 20.0216L18.256 18.7573C18.7195 18.2931 18.7195 17.5409 18.256 17.0768C17.7924 16.6127 17.041 16.6127 16.5774 17.0768L15.3145 18.3412L12.1014 21.5581H9.06403L8.16882 20.6618C6.95389 19.4455 4.98762 19.4455 3.77268 20.6618L3.37303 21.0619C3.13325 21.302 2.74958 21.302 2.52578 21.0619C2.28599 20.8219 2.28599 20.4377 2.52578 20.2137L5.38726 17.3489V14.0039L0.863241 18.5332C-0.287747 19.6855 -0.287747 21.5741 0.863241 22.7424C2.01423 23.9107 3.90057 23.8947 5.06754 22.7424L5.46719 22.3423C5.75494 22.0542 6.21853 22.0542 6.50628 22.3423L6.84198 22.6784L6.6022 22.9184C5.06754 24.4549 4.22029 26.5195 4.22029 28.6961V39.147H6.58621V36.6023L10.199 32.9853C10.199 32.9853 10.199 32.9853 10.215 32.9693L12.0374 34.7938C12.3412 35.0979 12.517 35.514 12.501 35.9461L12.469 39.131L14.835 39.147L14.8669 35.9621C14.8829 34.9058 14.4513 33.8655 13.7 33.1133L12.1173 31.5289C13.4602 30.7607 14.9948 30.3445 16.5934 30.3445H20.3341L22.6841 32.6972C22.9878 33.0013 23.1636 33.4334 23.1477 33.8655L23.0677 39.147L25.4336 39.179L25.5136 33.8975C25.5296 32.8252 25.1139 31.7849 24.3466 31.0327L23.6432 30.3285L23.835 30.2325C24.7942 29.7684 25.6894 29.1922 26.4887 28.552C26.7605 28.328 27.0322 28.1039 27.288 27.8638L28.9186 29.4963C29.2223 29.8004 29.3822 30.2165 29.3822 30.6326V39.179H31.7481V30.6326C31.7641 29.5603 31.3325 28.536 30.5971 27.7838Z" fill="#22C8D8"/>
</svg>
